<mxfile host="app.diagrams.net" modified="2023-08-14T06:47:21.900Z" agent="Mozilla/5.0 (Windows NT 10.0; Win64; x64) AppleWebKit/537.36 (KHTML, like Gecko) Chrome/109.0.0.0 Safari/537.36" etag="1R9w_Me4d66gpiYP64yS" version="21.6.8" type="device" pages="4">
  <diagram id="SBEp2xC8KPvj_Z4Y8y0k" name="Coffee Machine">
    <mxGraphModel dx="794" dy="484" grid="1" gridSize="10" guides="1" tooltips="1" connect="1" arrows="1" fold="1" page="1" pageScale="1" pageWidth="827" pageHeight="1169" math="0" shadow="0">
      <root>
        <mxCell id="0" />
        <mxCell id="1" parent="0" />
        <mxCell id="k98sXSTNbK3coDCv22x3-1" value="" style="edgeStyle=none;rounded=0;orthogonalLoop=1;jettySize=auto;html=1;entryX=0.5;entryY=0;entryDx=0;entryDy=0;" edge="1" parent="1" target="k98sXSTNbK3coDCv22x3-3">
          <mxGeometry relative="1" as="geometry">
            <mxPoint x="423" y="225" as="targetPoint" />
            <mxPoint x="423" y="145" as="sourcePoint" />
          </mxGeometry>
        </mxCell>
        <mxCell id="k98sXSTNbK3coDCv22x3-2" value="" style="edgeStyle=orthogonalEdgeStyle;rounded=0;orthogonalLoop=1;jettySize=auto;html=1;" edge="1" parent="1" source="k98sXSTNbK3coDCv22x3-3" target="k98sXSTNbK3coDCv22x3-6">
          <mxGeometry relative="1" as="geometry">
            <mxPoint x="423" y="345" as="targetPoint" />
          </mxGeometry>
        </mxCell>
        <mxCell id="k98sXSTNbK3coDCv22x3-3" value="Power ON" style="shape=parallelogram;perimeter=parallelogramPerimeter;whiteSpace=wrap;html=1;fixedSize=1;strokeColor=#6F0000;fontColor=#ffffff;gradientColor=#CC0000;fillColor=#FF3333;fontStyle=0" vertex="1" parent="1">
          <mxGeometry x="363" y="205" width="120" height="50" as="geometry" />
        </mxCell>
        <mxCell id="k98sXSTNbK3coDCv22x3-4" value="" style="edgeStyle=none;rounded=0;orthogonalLoop=1;jettySize=auto;html=1;" edge="1" parent="1" source="k98sXSTNbK3coDCv22x3-6" target="k98sXSTNbK3coDCv22x3-8">
          <mxGeometry relative="1" as="geometry" />
        </mxCell>
        <mxCell id="k98sXSTNbK3coDCv22x3-5" value="" style="edgeStyle=orthogonalEdgeStyle;rounded=0;orthogonalLoop=1;jettySize=auto;html=1;fontColor=#F0F0F0;entryX=0;entryY=0.5;entryDx=0;entryDy=0;" edge="1" parent="1" source="k98sXSTNbK3coDCv22x3-6" target="k98sXSTNbK3coDCv22x3-11">
          <mxGeometry relative="1" as="geometry">
            <mxPoint x="283" y="585" as="targetPoint" />
            <Array as="points">
              <mxPoint x="293" y="345" />
              <mxPoint x="293" y="585" />
            </Array>
          </mxGeometry>
        </mxCell>
        <mxCell id="pL3miA3v6JQYMeyLFByc-2" value="" style="edgeStyle=orthogonalEdgeStyle;rounded=0;orthogonalLoop=1;jettySize=auto;html=1;entryX=1;entryY=0.5;entryDx=0;entryDy=0;" edge="1" parent="1" source="k98sXSTNbK3coDCv22x3-6" target="k98sXSTNbK3coDCv22x3-13">
          <mxGeometry relative="1" as="geometry">
            <mxPoint x="560" y="650" as="targetPoint" />
            <Array as="points">
              <mxPoint x="580" y="345" />
              <mxPoint x="580" y="705" />
            </Array>
          </mxGeometry>
        </mxCell>
        <mxCell id="k98sXSTNbK3coDCv22x3-6" value="Coffee Options" style="rhombus;whiteSpace=wrap;html=1;fillColor=#66FF66;gradientColor=#009900;fontColor=#FFFFFF;labelBorderColor=none;" vertex="1" parent="1">
          <mxGeometry x="363" y="315" width="120" height="60" as="geometry" />
        </mxCell>
        <mxCell id="k98sXSTNbK3coDCv22x3-7" value="" style="edgeStyle=none;rounded=0;orthogonalLoop=1;jettySize=auto;html=1;entryX=0.5;entryY=0;entryDx=0;entryDy=0;entryPerimeter=0;" edge="1" parent="1" source="k98sXSTNbK3coDCv22x3-8" target="k98sXSTNbK3coDCv22x3-11">
          <mxGeometry relative="1" as="geometry">
            <mxPoint x="423" y="545" as="targetPoint" />
          </mxGeometry>
        </mxCell>
        <mxCell id="k98sXSTNbK3coDCv22x3-8" value="Add Chocolate Powder" style="whiteSpace=wrap;html=1;fillColor=#66FF66;strokeWidth=1;strokeColor=#6F0000;fontColor=#ffffff;gradientColor=#009900;" vertex="1" parent="1">
          <mxGeometry x="363" y="435" width="120" height="60" as="geometry" />
        </mxCell>
        <mxCell id="k98sXSTNbK3coDCv22x3-9" value="Mocha" style="text;html=1;align=left;verticalAlign=middle;resizable=0;points=[];autosize=1;fontStyle=1" vertex="1" parent="1">
          <mxGeometry x="430" y="380" width="60" height="30" as="geometry" />
        </mxCell>
        <mxCell id="k98sXSTNbK3coDCv22x3-10" value="" style="edgeStyle=none;rounded=0;orthogonalLoop=1;jettySize=auto;html=1;" edge="1" parent="1" source="k98sXSTNbK3coDCv22x3-11" target="k98sXSTNbK3coDCv22x3-13">
          <mxGeometry relative="1" as="geometry" />
        </mxCell>
        <mxCell id="k98sXSTNbK3coDCv22x3-11" value="Add Frothed Milk" style="whiteSpace=wrap;html=1;fillColor=#66FF66;fontColor=#ffffff;strokeColor=#6F0000;gradientColor=#009900;" vertex="1" parent="1">
          <mxGeometry x="363" y="555" width="120" height="60" as="geometry" />
        </mxCell>
        <mxCell id="k98sXSTNbK3coDCv22x3-12" value="" style="edgeStyle=none;rounded=0;orthogonalLoop=1;jettySize=auto;html=1;" edge="1" parent="1" source="k98sXSTNbK3coDCv22x3-13">
          <mxGeometry relative="1" as="geometry">
            <mxPoint x="423" y="795" as="targetPoint" />
          </mxGeometry>
        </mxCell>
        <mxCell id="k98sXSTNbK3coDCv22x3-13" value="Add Hot Coffee" style="whiteSpace=wrap;html=1;fillColor=#66FF66;fontStyle=0;fontColor=#ffffff;strokeColor=#6F0000;gradientColor=#009900;" vertex="1" parent="1">
          <mxGeometry x="363" y="675" width="120" height="60" as="geometry" />
        </mxCell>
        <mxCell id="k98sXSTNbK3coDCv22x3-14" value="" style="edgeStyle=none;rounded=0;orthogonalLoop=1;jettySize=auto;html=1;exitX=0.5;exitY=1;exitDx=0;exitDy=0;entryX=0;entryY=0.5;entryDx=0;entryDy=0;" edge="1" parent="1" source="k98sXSTNbK3coDCv22x3-15" target="k98sXSTNbK3coDCv22x3-17">
          <mxGeometry relative="1" as="geometry">
            <mxPoint x="423" y="915" as="targetPoint" />
            <Array as="points">
              <mxPoint x="260" y="940" />
            </Array>
          </mxGeometry>
        </mxCell>
        <mxCell id="k98sXSTNbK3coDCv22x3-15" value="Power Pressed?" style="rhombus;whiteSpace=wrap;html=1;gradientColor=#009900;fillColor=#66FF66;fontColor=#FFFFFF;fontStyle=0;fontSize=11;" vertex="1" parent="1">
          <mxGeometry x="200" y="790" width="120" height="60" as="geometry" />
        </mxCell>
        <mxCell id="k98sXSTNbK3coDCv22x3-16" value="" style="edgeStyle=none;rounded=0;orthogonalLoop=1;jettySize=auto;html=1;" edge="1" parent="1" source="k98sXSTNbK3coDCv22x3-17">
          <mxGeometry relative="1" as="geometry">
            <mxPoint x="423" y="1025" as="targetPoint" />
          </mxGeometry>
        </mxCell>
        <mxCell id="k98sXSTNbK3coDCv22x3-17" value="Power OFF" style="shape=parallelogram;perimeter=parallelogramPerimeter;whiteSpace=wrap;html=1;fixedSize=1;gradientColor=#CC0000;fillColor=#FF3333;fontColor=#FFFFFF;fontStyle=0" vertex="1" parent="1">
          <mxGeometry x="363" y="915" width="120" height="50" as="geometry" />
        </mxCell>
        <mxCell id="k98sXSTNbK3coDCv22x3-18" value="END" style="ellipse;whiteSpace=wrap;html=1;fillColor=#66FFFF;gradientColor=#00CCCC;strokeColor=#000000;fontColor=#FFFFFF;fontStyle=1;fontSize=15;" vertex="1" parent="1">
          <mxGeometry x="368" y="1025" width="110" height="50" as="geometry" />
        </mxCell>
        <mxCell id="k98sXSTNbK3coDCv22x3-19" value="&lt;font color=&quot;#000000&quot;&gt;Latte&lt;/font&gt;" style="text;html=1;align=center;verticalAlign=middle;resizable=0;points=[];autosize=1;fontColor=#F0F0F0;fontStyle=1" vertex="1" parent="1">
          <mxGeometry x="308" y="320" width="50" height="30" as="geometry" />
        </mxCell>
        <mxCell id="k98sXSTNbK3coDCv22x3-20" value="" style="endArrow=classic;html=1;rounded=0;entryX=0.5;entryY=0;entryDx=0;entryDy=0;" edge="1" parent="1" target="k98sXSTNbK3coDCv22x3-15">
          <mxGeometry width="50" height="50" relative="1" as="geometry">
            <mxPoint x="423" y="285" as="sourcePoint" />
            <mxPoint x="360" y="825" as="targetPoint" />
            <Array as="points">
              <mxPoint x="260" y="285" />
            </Array>
          </mxGeometry>
        </mxCell>
        <mxCell id="1_EIpgYJ8HkZoCnsC1wD-1" value="START" style="ellipse;fillColor=#66FFFF;strokeColor=#000000;gradientColor=#00CCCC;labelBackgroundColor=none;labelBorderColor=none;html=1;whiteSpace=wrap;fontStyle=1;fontColor=#FFFFFF;fontFamily=Helvetica;fontSize=15;" vertex="1" parent="1">
          <mxGeometry x="368" y="95" width="110" height="50" as="geometry" />
        </mxCell>
        <mxCell id="1_EIpgYJ8HkZoCnsC1wD-2" value="&lt;font color=&quot;#000000&quot;&gt;Espresso&lt;/font&gt;" style="text;html=1;align=center;verticalAlign=middle;resizable=0;points=[];autosize=1;fontColor=#F0F0F0;fontStyle=1" vertex="1" parent="1">
          <mxGeometry x="483" y="320" width="80" height="30" as="geometry" />
        </mxCell>
        <mxCell id="YNBaLbaIvJHKN_YwtgVs-2" value="" style="edgeStyle=orthogonalEdgeStyle;rounded=0;orthogonalLoop=1;jettySize=auto;html=1;" edge="1" parent="1" source="YNBaLbaIvJHKN_YwtgVs-1" target="k98sXSTNbK3coDCv22x3-15">
          <mxGeometry relative="1" as="geometry" />
        </mxCell>
        <mxCell id="YNBaLbaIvJHKN_YwtgVs-1" value="Coffee Result" style="shape=parallelogram;perimeter=parallelogramPerimeter;whiteSpace=wrap;html=1;fixedSize=1;gradientColor=#CC0000;fillColor=#FF3333;fontColor=#FFFFFF;fontStyle=0" vertex="1" parent="1">
          <mxGeometry x="363" y="795" width="120" height="50" as="geometry" />
        </mxCell>
        <mxCell id="IcxtTW04K5CUrRq2xljb-1" value="&lt;b&gt;Yes&lt;/b&gt;" style="text;html=1;align=center;verticalAlign=middle;resizable=0;points=[];autosize=1;strokeColor=none;fillColor=none;" vertex="1" parent="1">
          <mxGeometry x="260" y="860" width="40" height="30" as="geometry" />
        </mxCell>
        <mxCell id="IcxtTW04K5CUrRq2xljb-2" value="ANGGA X PPLG 1" style="rounded=1;whiteSpace=wrap;html=1;fontStyle=0;arcSize=50;" vertex="1" parent="1">
          <mxGeometry x="40" y="40" width="120" height="40" as="geometry" />
        </mxCell>
      </root>
    </mxGraphModel>
  </diagram>
  <diagram id="hENLT9Bm0fTXh2s3uT75" name="Pendaftaran Anggota Perpustakaan">
    <mxGraphModel dx="662" dy="403" grid="1" gridSize="10" guides="1" tooltips="1" connect="1" arrows="1" fold="1" page="1" pageScale="1" pageWidth="827" pageHeight="1169" math="0" shadow="0">
      <root>
        <mxCell id="0" />
        <mxCell id="1" parent="0" />
        <mxCell id="ZIUgZptHF_LzewS09OyD-2" value="" style="edgeStyle=orthogonalEdgeStyle;rounded=0;orthogonalLoop=1;jettySize=auto;html=1;entryX=0.5;entryY=0;entryDx=0;entryDy=0;" edge="1" parent="1" source="gFTtPNnC03KHVV1qEUwf-1" target="ZIUgZptHF_LzewS09OyD-3">
          <mxGeometry relative="1" as="geometry">
            <mxPoint x="423" y="220" as="targetPoint" />
          </mxGeometry>
        </mxCell>
        <mxCell id="gFTtPNnC03KHVV1qEUwf-1" value="START" style="ellipse;fillColor=#66FFFF;strokeColor=#000000;gradientColor=#00CCCC;labelBackgroundColor=none;labelBorderColor=none;html=1;whiteSpace=wrap;fontStyle=1;fontColor=#FFFFFF;fontFamily=Helvetica;fontSize=15;" vertex="1" parent="1">
          <mxGeometry x="368" y="95" width="110" height="50" as="geometry" />
        </mxCell>
        <mxCell id="bkIu_1hhf-SrbbPcfZOp-8" value="" style="edgeStyle=orthogonalEdgeStyle;rounded=0;orthogonalLoop=1;jettySize=auto;html=1;entryX=0.5;entryY=0;entryDx=0;entryDy=0;" edge="1" parent="1" source="ZIUgZptHF_LzewS09OyD-3" target="bkIu_1hhf-SrbbPcfZOp-3">
          <mxGeometry relative="1" as="geometry">
            <mxPoint x="423" y="330" as="targetPoint" />
          </mxGeometry>
        </mxCell>
        <mxCell id="ZIUgZptHF_LzewS09OyD-3" value="Input Data Ke&lt;br&gt;Formulir" style="shape=parallelogram;perimeter=parallelogramPerimeter;whiteSpace=wrap;html=1;fixedSize=1;strokeColor=#6F0000;fontColor=#ffffff;gradientColor=#CC0000;fillColor=#FF3333;fontStyle=0" vertex="1" parent="1">
          <mxGeometry x="363" y="205" width="120" height="50" as="geometry" />
        </mxCell>
        <mxCell id="c9H0ZcBg4Cfs3kF4rpdV-2" value="" style="edgeStyle=orthogonalEdgeStyle;rounded=0;orthogonalLoop=1;jettySize=auto;html=1;" edge="1" parent="1" source="bkIu_1hhf-SrbbPcfZOp-3">
          <mxGeometry relative="1" as="geometry">
            <mxPoint x="563" y="350" as="targetPoint" />
          </mxGeometry>
        </mxCell>
        <mxCell id="bkIu_1hhf-SrbbPcfZOp-3" value="Mengecek Kelengkapan Data Formulir" style="whiteSpace=wrap;html=1;fillColor=#66FF66;strokeWidth=1;strokeColor=#6F0000;fontColor=#ffffff;gradientColor=#009900;" vertex="1" parent="1">
          <mxGeometry x="363" y="320" width="120" height="60" as="geometry" />
        </mxCell>
        <mxCell id="CUskCf0ZrLr9VBs3Gj0i-2" value="" style="edgeStyle=orthogonalEdgeStyle;rounded=0;orthogonalLoop=1;jettySize=auto;html=1;entryX=1;entryY=0.5;entryDx=0;entryDy=0;" edge="1" parent="1" source="c9H0ZcBg4Cfs3kF4rpdV-3" target="ZIUgZptHF_LzewS09OyD-3">
          <mxGeometry relative="1" as="geometry">
            <mxPoint x="620" y="230" as="targetPoint" />
            <Array as="points">
              <mxPoint x="620" y="230" />
            </Array>
          </mxGeometry>
        </mxCell>
        <mxCell id="Ntr4Z9HXPqHMO6ExY8_a-2" value="" style="edgeStyle=orthogonalEdgeStyle;rounded=0;orthogonalLoop=1;jettySize=auto;html=1;" edge="1" parent="1" source="c9H0ZcBg4Cfs3kF4rpdV-3" target="Ntr4Z9HXPqHMO6ExY8_a-1">
          <mxGeometry relative="1" as="geometry">
            <Array as="points">
              <mxPoint x="620" y="410" />
              <mxPoint x="423" y="410" />
            </Array>
          </mxGeometry>
        </mxCell>
        <mxCell id="c9H0ZcBg4Cfs3kF4rpdV-3" value="Data formulir&lt;br style=&quot;font-size: 11px;&quot;&gt;Lengkap?" style="rhombus;whiteSpace=wrap;html=1;fillColor=#66FF66;gradientColor=#009900;fontColor=#FFFFFF;labelBorderColor=none;fontSize=11;" vertex="1" parent="1">
          <mxGeometry x="560" y="320" width="120" height="60" as="geometry" />
        </mxCell>
        <mxCell id="81WJk28gL8_kB64XJWON-1" value="Belum&lt;br&gt;Lengkap" style="text;html=1;align=left;verticalAlign=middle;resizable=0;points=[];autosize=1;strokeColor=none;fillColor=none;fontStyle=1" vertex="1" parent="1">
          <mxGeometry x="630" y="263" width="70" height="40" as="geometry" />
        </mxCell>
        <mxCell id="Cxi7o82HHvMy32Nj2ZTn-8" value="" style="edgeStyle=orthogonalEdgeStyle;rounded=0;orthogonalLoop=1;jettySize=auto;html=1;entryX=1;entryY=0.5;entryDx=0;entryDy=0;entryPerimeter=0;" edge="1" parent="1" source="Ntr4Z9HXPqHMO6ExY8_a-1" target="Cxi7o82HHvMy32Nj2ZTn-9">
          <mxGeometry relative="1" as="geometry">
            <mxPoint x="420" y="480" as="targetPoint" />
          </mxGeometry>
        </mxCell>
        <mxCell id="Ntr4Z9HXPqHMO6ExY8_a-1" value="Menyimpan Data Formulir" style="whiteSpace=wrap;html=1;fillColor=#66FF66;strokeWidth=1;strokeColor=#6F0000;fontColor=#ffffff;gradientColor=#009900;" vertex="1" parent="1">
          <mxGeometry x="363" y="470" width="120" height="60" as="geometry" />
        </mxCell>
        <mxCell id="Ntr4Z9HXPqHMO6ExY8_a-3" value="Sudah&lt;br&gt;Lengkap" style="text;html=1;align=left;verticalAlign=middle;resizable=0;points=[];autosize=1;strokeColor=none;fillColor=none;fontStyle=1" vertex="1" parent="1">
          <mxGeometry x="630" y="390" width="70" height="40" as="geometry" />
        </mxCell>
        <mxCell id="Cxi7o82HHvMy32Nj2ZTn-11" value="" style="edgeStyle=orthogonalEdgeStyle;rounded=0;orthogonalLoop=1;jettySize=auto;html=1;" edge="1" parent="1" source="Cxi7o82HHvMy32Nj2ZTn-6" target="Cxi7o82HHvMy32Nj2ZTn-10">
          <mxGeometry relative="1" as="geometry">
            <Array as="points">
              <mxPoint x="620" y="620" />
            </Array>
          </mxGeometry>
        </mxCell>
        <mxCell id="Cxi7o82HHvMy32Nj2ZTn-6" value="Membuat Kartu Anggota" style="whiteSpace=wrap;html=1;fillColor=#66FF66;strokeWidth=1;strokeColor=#6F0000;fontColor=#ffffff;gradientColor=#009900;" vertex="1" parent="1">
          <mxGeometry x="560" y="470" width="120" height="60" as="geometry" />
        </mxCell>
        <mxCell id="Cxi7o82HHvMy32Nj2ZTn-9" value="" style="strokeWidth=1;html=1;shape=mxgraph.flowchart.database;whiteSpace=wrap;fillColor=#FFFF33;strokeColor=#000000;gradientColor=#FF3333;" vertex="1" parent="1">
          <mxGeometry x="230" y="470" width="60" height="60" as="geometry" />
        </mxCell>
        <mxCell id="Ql0lmuVlP_jSfvMAqyIT-2" value="" style="edgeStyle=orthogonalEdgeStyle;rounded=0;orthogonalLoop=1;jettySize=auto;html=1;" edge="1" parent="1" source="Cxi7o82HHvMy32Nj2ZTn-10">
          <mxGeometry relative="1" as="geometry">
            <mxPoint x="423" y="720" as="targetPoint" />
          </mxGeometry>
        </mxCell>
        <mxCell id="Cxi7o82HHvMy32Nj2ZTn-10" value="Menunjukkan&lt;br&gt;Kartu Anggota" style="shape=parallelogram;perimeter=parallelogramPerimeter;whiteSpace=wrap;html=1;fixedSize=1;strokeColor=#6F0000;fontColor=#ffffff;gradientColor=#CC0000;fillColor=#FF3333;fontStyle=0" vertex="1" parent="1">
          <mxGeometry x="363" y="595" width="120" height="50" as="geometry" />
        </mxCell>
        <mxCell id="Sf56I_pijTrFE6WiVCLC-1" value="END" style="ellipse;whiteSpace=wrap;html=1;fillColor=#66FFFF;gradientColor=#00CCCC;strokeColor=#000000;fontColor=#FFFFFF;fontStyle=1;fontSize=15;" vertex="1" parent="1">
          <mxGeometry x="368" y="720" width="110" height="50" as="geometry" />
        </mxCell>
        <mxCell id="Q0r39dBfNpBriLK1PkjQ-2" value="" style="edgeStyle=orthogonalEdgeStyle;rounded=0;orthogonalLoop=1;jettySize=auto;html=1;entryX=0.5;entryY=0;entryDx=0;entryDy=0;exitX=0.5;exitY=1;exitDx=0;exitDy=0;" edge="1" parent="1" source="c9H0ZcBg4Cfs3kF4rpdV-3" target="Cxi7o82HHvMy32Nj2ZTn-6">
          <mxGeometry relative="1" as="geometry">
            <mxPoint x="493" y="360" as="sourcePoint" />
            <mxPoint x="573" y="360" as="targetPoint" />
          </mxGeometry>
        </mxCell>
        <mxCell id="oNulurIihZWblEiqJtRC-1" value="ANGGA X PPLG 1" style="rounded=1;whiteSpace=wrap;html=1;fontStyle=0;arcSize=50;" vertex="1" parent="1">
          <mxGeometry x="40" y="40" width="120" height="40" as="geometry" />
        </mxCell>
      </root>
    </mxGraphModel>
  </diagram>
  <diagram id="bSDSI56qF1xAqp5iA2kI" name="Menghitung Luas Segitiga">
    <mxGraphModel dx="794" dy="484" grid="1" gridSize="10" guides="1" tooltips="1" connect="1" arrows="1" fold="1" page="1" pageScale="1" pageWidth="827" pageHeight="1169" math="0" shadow="0">
      <root>
        <mxCell id="0" />
        <mxCell id="1" parent="0" />
        <mxCell id="74gLFw1ZL_kfHeoh1bpY-3" value="" style="edgeStyle=orthogonalEdgeStyle;rounded=0;orthogonalLoop=1;jettySize=auto;html=1;" edge="1" parent="1" source="74gLFw1ZL_kfHeoh1bpY-1">
          <mxGeometry relative="1" as="geometry">
            <mxPoint x="423" y="220" as="targetPoint" />
          </mxGeometry>
        </mxCell>
        <mxCell id="74gLFw1ZL_kfHeoh1bpY-1" value="START" style="ellipse;fillColor=#66FFFF;strokeColor=#000000;gradientColor=#00CCCC;labelBackgroundColor=none;labelBorderColor=none;html=1;whiteSpace=wrap;fontStyle=1;fontColor=#FFFFFF;fontFamily=Helvetica;fontSize=15;" vertex="1" parent="1">
          <mxGeometry x="368" y="95" width="110" height="50" as="geometry" />
        </mxCell>
        <mxCell id="H1AcPrCzxZ68_KJ8oAwp-3" value="" style="edgeStyle=orthogonalEdgeStyle;rounded=0;orthogonalLoop=1;jettySize=auto;html=1;" edge="1" parent="1" source="DwiGObxuYQW7-XacAraF-1" target="H1AcPrCzxZ68_KJ8oAwp-1">
          <mxGeometry relative="1" as="geometry" />
        </mxCell>
        <mxCell id="DwiGObxuYQW7-XacAraF-1" value="Input x = Alas&lt;br&gt;Input y = Tinggi" style="shape=parallelogram;perimeter=parallelogramPerimeter;whiteSpace=wrap;html=1;fixedSize=1;strokeColor=#6F0000;fontColor=#ffffff;gradientColor=#CC0000;fillColor=#FF3333;fontStyle=0" vertex="1" parent="1">
          <mxGeometry x="363" y="220" width="120" height="50" as="geometry" />
        </mxCell>
        <mxCell id="H1AcPrCzxZ68_KJ8oAwp-5" value="" style="edgeStyle=orthogonalEdgeStyle;rounded=0;orthogonalLoop=1;jettySize=auto;html=1;" edge="1" parent="1" source="H1AcPrCzxZ68_KJ8oAwp-1">
          <mxGeometry relative="1" as="geometry">
            <mxPoint x="423" y="490" as="targetPoint" />
          </mxGeometry>
        </mxCell>
        <mxCell id="H1AcPrCzxZ68_KJ8oAwp-1" value="Luas = x * y / 2" style="whiteSpace=wrap;html=1;fillColor=#66FF66;strokeWidth=1;strokeColor=#6F0000;fontColor=#ffffff;gradientColor=#009900;" vertex="1" parent="1">
          <mxGeometry x="363" y="350" width="120" height="60" as="geometry" />
        </mxCell>
        <mxCell id="G1APeFPNyT2gNBLBT1uP-3" value="" style="edgeStyle=orthogonalEdgeStyle;rounded=0;orthogonalLoop=1;jettySize=auto;html=1;entryX=0.5;entryY=0;entryDx=0;entryDy=0;" edge="1" parent="1" source="H1AcPrCzxZ68_KJ8oAwp-6" target="G1APeFPNyT2gNBLBT1uP-1">
          <mxGeometry relative="1" as="geometry">
            <mxPoint x="423" y="615" as="targetPoint" />
          </mxGeometry>
        </mxCell>
        <mxCell id="H1AcPrCzxZ68_KJ8oAwp-6" value="Hasil Luas" style="shape=parallelogram;perimeter=parallelogramPerimeter;whiteSpace=wrap;html=1;fixedSize=1;strokeColor=#6F0000;fontColor=#ffffff;gradientColor=#CC0000;fillColor=#FF3333;fontStyle=0" vertex="1" parent="1">
          <mxGeometry x="363" y="490" width="120" height="50" as="geometry" />
        </mxCell>
        <mxCell id="JNBpQqVyfesuenW5iKtN-1" value="END" style="ellipse;whiteSpace=wrap;html=1;fillColor=#66FFFF;gradientColor=#00CCCC;strokeColor=#000000;fontColor=#FFFFFF;fontStyle=1;fontSize=15;" vertex="1" parent="1">
          <mxGeometry x="368" y="760" width="110" height="50" as="geometry" />
        </mxCell>
        <mxCell id="G1APeFPNyT2gNBLBT1uP-6" value="" style="edgeStyle=orthogonalEdgeStyle;rounded=0;orthogonalLoop=1;jettySize=auto;html=1;" edge="1" parent="1" source="G1APeFPNyT2gNBLBT1uP-1">
          <mxGeometry relative="1" as="geometry">
            <mxPoint x="423" y="760" as="targetPoint" />
          </mxGeometry>
        </mxCell>
        <mxCell id="G1APeFPNyT2gNBLBT1uP-11" value="" style="edgeStyle=orthogonalEdgeStyle;rounded=0;orthogonalLoop=1;jettySize=auto;html=1;entryX=1;entryY=0.5;entryDx=0;entryDy=0;" edge="1" parent="1" source="G1APeFPNyT2gNBLBT1uP-1" target="DwiGObxuYQW7-XacAraF-1">
          <mxGeometry relative="1" as="geometry">
            <mxPoint x="583" y="650" as="targetPoint" />
            <Array as="points">
              <mxPoint x="540" y="650" />
              <mxPoint x="540" y="245" />
            </Array>
          </mxGeometry>
        </mxCell>
        <mxCell id="G1APeFPNyT2gNBLBT1uP-1" value="&lt;font style=&quot;font-size: 10px;&quot;&gt;Ingin Menghitung&lt;br&gt;Lagi?&lt;/font&gt;" style="rhombus;whiteSpace=wrap;html=1;fillColor=#66FF66;gradientColor=#009900;fontColor=#FFFFFF;labelBorderColor=none;fontSize=12;verticalAlign=middle;" vertex="1" parent="1">
          <mxGeometry x="363" y="620" width="120" height="60" as="geometry" />
        </mxCell>
        <mxCell id="G1APeFPNyT2gNBLBT1uP-8" value="&lt;b&gt;Tidak&lt;/b&gt;" style="text;html=1;align=center;verticalAlign=middle;resizable=0;points=[];autosize=1;strokeColor=none;fillColor=none;" vertex="1" parent="1">
          <mxGeometry x="420" y="690" width="50" height="30" as="geometry" />
        </mxCell>
        <mxCell id="G1APeFPNyT2gNBLBT1uP-12" value="&lt;b&gt;Iya&lt;/b&gt;" style="text;html=1;align=center;verticalAlign=middle;resizable=0;points=[];autosize=1;strokeColor=none;fillColor=none;" vertex="1" parent="1">
          <mxGeometry x="483" y="620" width="40" height="30" as="geometry" />
        </mxCell>
        <mxCell id="SMPBftg2CHWp9n18yRBh-1" value="ANGGA X PPLG 1" style="rounded=1;whiteSpace=wrap;html=1;fontStyle=0;arcSize=50;" vertex="1" parent="1">
          <mxGeometry x="40" y="40" width="120" height="40" as="geometry" />
        </mxCell>
      </root>
    </mxGraphModel>
  </diagram>
  <diagram id="979D2TWnKu_hFecxp2vY" name="Registrasi Akun Dan Login">
    <mxGraphModel dx="794" dy="484" grid="1" gridSize="10" guides="1" tooltips="1" connect="1" arrows="1" fold="1" page="1" pageScale="1" pageWidth="827" pageHeight="1169" math="0" shadow="0">
      <root>
        <mxCell id="0" />
        <mxCell id="1" parent="0" />
        <mxCell id="6OwBUK69tOuJ7I0vZdhF-4" value="" style="edgeStyle=orthogonalEdgeStyle;rounded=0;orthogonalLoop=1;jettySize=auto;html=1;" edge="1" parent="1" source="SAx4FOJ87G6_yhcaU9zw-1" target="6OwBUK69tOuJ7I0vZdhF-1">
          <mxGeometry relative="1" as="geometry" />
        </mxCell>
        <mxCell id="SAx4FOJ87G6_yhcaU9zw-1" value="START" style="ellipse;fillColor=#66FFFF;strokeColor=#000000;gradientColor=#00CCCC;labelBackgroundColor=none;labelBorderColor=none;html=1;whiteSpace=wrap;fontStyle=1;fontColor=#FFFFFF;fontFamily=Helvetica;fontSize=15;" vertex="1" parent="1">
          <mxGeometry x="368" y="95" width="110" height="50" as="geometry" />
        </mxCell>
        <mxCell id="gppB5W422jFFQii2BKXh-2" value="" style="edgeStyle=orthogonalEdgeStyle;rounded=0;orthogonalLoop=1;jettySize=auto;html=1;" edge="1" parent="1" source="HX7EneIBn8n42wCykfm5-1" target="H_HTT0naU7XCwQIY3E9h-3">
          <mxGeometry relative="1" as="geometry" />
        </mxCell>
        <mxCell id="HX7EneIBn8n42wCykfm5-1" value="Input Username&lt;br&gt;dan Email" style="shape=parallelogram;perimeter=parallelogramPerimeter;whiteSpace=wrap;html=1;fixedSize=1;strokeColor=#6F0000;fontColor=#ffffff;gradientColor=#CC0000;fillColor=#FF3333;fontStyle=0" vertex="1" parent="1">
          <mxGeometry x="190" y="205" width="120" height="50" as="geometry" />
        </mxCell>
        <mxCell id="gppB5W422jFFQii2BKXh-13" value="" style="edgeStyle=orthogonalEdgeStyle;rounded=0;orthogonalLoop=1;jettySize=auto;html=1;" edge="1" parent="1" source="XZ7KPIIfbyn-EP79vSvG-1">
          <mxGeometry relative="1" as="geometry">
            <mxPoint x="423" y="530" as="targetPoint" />
          </mxGeometry>
        </mxCell>
        <mxCell id="qJYOYqynbdRcIpPX3VLA-8" value="" style="edgeStyle=orthogonalEdgeStyle;rounded=0;orthogonalLoop=1;jettySize=auto;html=1;entryX=1;entryY=0.5;entryDx=0;entryDy=0;" edge="1" parent="1" source="XZ7KPIIfbyn-EP79vSvG-1" target="gppB5W422jFFQii2BKXh-5">
          <mxGeometry relative="1" as="geometry">
            <mxPoint x="563" y="450" as="targetPoint" />
            <Array as="points">
              <mxPoint x="500" y="450" />
              <mxPoint x="500" y="345" />
            </Array>
          </mxGeometry>
        </mxCell>
        <mxCell id="XZ7KPIIfbyn-EP79vSvG-1" value="Verifikasi Akun" style="rhombus;whiteSpace=wrap;html=1;fillColor=#66FF66;gradientColor=#009900;fontColor=#FFFFFF;labelBorderColor=none;fontSize=12;" vertex="1" parent="1">
          <mxGeometry x="363" y="420" width="120" height="60" as="geometry" />
        </mxCell>
        <mxCell id="qJYOYqynbdRcIpPX3VLA-3" value="" style="edgeStyle=orthogonalEdgeStyle;rounded=0;orthogonalLoop=1;jettySize=auto;html=1;entryX=0;entryY=0.5;entryDx=0;entryDy=0;" edge="1" parent="1" source="H_HTT0naU7XCwQIY3E9h-3" target="gppB5W422jFFQii2BKXh-1">
          <mxGeometry relative="1" as="geometry">
            <Array as="points">
              <mxPoint x="110" y="345" />
            </Array>
          </mxGeometry>
        </mxCell>
        <mxCell id="H_HTT0naU7XCwQIY3E9h-3" value="Input Password&lt;br&gt;dan Konfirmasi" style="shape=parallelogram;perimeter=parallelogramPerimeter;whiteSpace=wrap;html=1;fixedSize=1;strokeColor=#6F0000;fontColor=#ffffff;gradientColor=#CC0000;fillColor=#FF3333;fontStyle=0" vertex="1" parent="1">
          <mxGeometry x="40" y="205" width="120" height="50" as="geometry" />
        </mxCell>
        <mxCell id="qJYOYqynbdRcIpPX3VLA-5" value="" style="edgeStyle=orthogonalEdgeStyle;rounded=0;orthogonalLoop=1;jettySize=auto;html=1;" edge="1" parent="1" source="gppB5W422jFFQii2BKXh-1" target="gppB5W422jFFQii2BKXh-5">
          <mxGeometry relative="1" as="geometry" />
        </mxCell>
        <mxCell id="-yKpytfvpzhhyN-w-DjF-2" value="" style="edgeStyle=orthogonalEdgeStyle;rounded=0;orthogonalLoop=1;jettySize=auto;html=1;entryX=0.5;entryY=0;entryDx=0;entryDy=0;" edge="1" parent="1" source="gppB5W422jFFQii2BKXh-1" target="8-Hwv97lm_sJu5GvK85R-2">
          <mxGeometry relative="1" as="geometry">
            <mxPoint x="250" y="460" as="targetPoint" />
          </mxGeometry>
        </mxCell>
        <mxCell id="gppB5W422jFFQii2BKXh-1" value="Akun Baru Telah Dibuat" style="whiteSpace=wrap;html=1;fillColor=#66FF66;fontColor=#ffffff;strokeColor=#6F0000;gradientColor=#009900;" vertex="1" parent="1">
          <mxGeometry x="190" y="315" width="120" height="60" as="geometry" />
        </mxCell>
        <mxCell id="qJYOYqynbdRcIpPX3VLA-1" value="" style="edgeStyle=orthogonalEdgeStyle;rounded=0;orthogonalLoop=1;jettySize=auto;html=1;" edge="1" parent="1" source="gppB5W422jFFQii2BKXh-5" target="XZ7KPIIfbyn-EP79vSvG-1">
          <mxGeometry relative="1" as="geometry" />
        </mxCell>
        <mxCell id="gppB5W422jFFQii2BKXh-5" value="Input Username&lt;br&gt;dan Password" style="shape=parallelogram;perimeter=parallelogramPerimeter;whiteSpace=wrap;html=1;fixedSize=1;strokeColor=#6F0000;fontColor=#ffffff;gradientColor=#CC0000;fillColor=#FF3333;fontStyle=0" vertex="1" parent="1">
          <mxGeometry x="363" y="320" width="120" height="50" as="geometry" />
        </mxCell>
        <mxCell id="gppB5W422jFFQii2BKXh-14" value="Sudah" style="text;html=1;align=center;verticalAlign=middle;resizable=0;points=[];autosize=1;strokeColor=none;fillColor=none;fontStyle=1" vertex="1" parent="1">
          <mxGeometry x="418" y="260" width="60" height="30" as="geometry" />
        </mxCell>
        <mxCell id="6OwBUK69tOuJ7I0vZdhF-6" value="" style="edgeStyle=orthogonalEdgeStyle;rounded=0;orthogonalLoop=1;jettySize=auto;html=1;" edge="1" parent="1" source="6OwBUK69tOuJ7I0vZdhF-1" target="gppB5W422jFFQii2BKXh-5">
          <mxGeometry relative="1" as="geometry" />
        </mxCell>
        <mxCell id="qJYOYqynbdRcIpPX3VLA-4" value="" style="edgeStyle=orthogonalEdgeStyle;rounded=0;orthogonalLoop=1;jettySize=auto;html=1;" edge="1" parent="1" source="6OwBUK69tOuJ7I0vZdhF-1" target="HX7EneIBn8n42wCykfm5-1">
          <mxGeometry relative="1" as="geometry" />
        </mxCell>
        <mxCell id="6OwBUK69tOuJ7I0vZdhF-1" value="Sudah Punya&lt;br style=&quot;font-size: 11px;&quot;&gt;Akun?" style="rhombus;whiteSpace=wrap;html=1;fillColor=#66FF66;gradientColor=#009900;fontColor=#FFFFFF;labelBorderColor=none;fontSize=11;" vertex="1" parent="1">
          <mxGeometry x="363" y="200" width="120" height="60" as="geometry" />
        </mxCell>
        <mxCell id="qJYOYqynbdRcIpPX3VLA-6" value="&lt;b&gt;Belum&lt;/b&gt;" style="text;html=1;align=center;verticalAlign=middle;resizable=0;points=[];autosize=1;strokeColor=none;fillColor=none;" vertex="1" parent="1">
          <mxGeometry x="310" y="205" width="60" height="30" as="geometry" />
        </mxCell>
        <mxCell id="uA5mUPUzhnTgGAi8o-U5-1" value="&lt;b&gt;Username atau&lt;br&gt;Password Tidak&lt;br&gt;Valid&lt;/b&gt;" style="text;html=1;align=left;verticalAlign=middle;resizable=0;points=[];autosize=1;strokeColor=none;fillColor=none;" vertex="1" parent="1">
          <mxGeometry x="510" y="390" width="110" height="60" as="geometry" />
        </mxCell>
        <mxCell id="6W1kunYh2q68jek1lERj-2" value="" style="edgeStyle=orthogonalEdgeStyle;rounded=0;orthogonalLoop=1;jettySize=auto;html=1;" edge="1" parent="1" source="uA5mUPUzhnTgGAi8o-U5-4" target="6W1kunYh2q68jek1lERj-1">
          <mxGeometry relative="1" as="geometry" />
        </mxCell>
        <mxCell id="uA5mUPUzhnTgGAi8o-U5-4" value="Konten Halaman Muncul" style="shape=parallelogram;perimeter=parallelogramPerimeter;whiteSpace=wrap;html=1;fixedSize=1;strokeColor=#6F0000;fontColor=#ffffff;gradientColor=#CC0000;fillColor=#FF3333;fontStyle=0" vertex="1" parent="1">
          <mxGeometry x="363" y="530" width="120" height="50" as="geometry" />
        </mxCell>
        <mxCell id="6W1kunYh2q68jek1lERj-1" value="END" style="ellipse;whiteSpace=wrap;html=1;fillColor=#66FFFF;gradientColor=#00CCCC;strokeColor=#000000;fontColor=#FFFFFF;fontStyle=1;fontSize=15;" vertex="1" parent="1">
          <mxGeometry x="368" y="630" width="110" height="50" as="geometry" />
        </mxCell>
        <mxCell id="95IMDB32WUao55e4FVux-2" value="" style="edgeStyle=orthogonalEdgeStyle;rounded=0;orthogonalLoop=1;jettySize=auto;html=1;entryX=0.5;entryY=0;entryDx=0;entryDy=0;entryPerimeter=0;" edge="1" parent="1" source="8-Hwv97lm_sJu5GvK85R-2" target="RilxSywIGoVYFwTixHnn-1">
          <mxGeometry relative="1" as="geometry">
            <mxPoint x="250" y="560" as="targetPoint" />
          </mxGeometry>
        </mxCell>
        <mxCell id="8-Hwv97lm_sJu5GvK85R-2" value="Menyimpan Data Akun Baru" style="whiteSpace=wrap;html=1;fillColor=#66FF66;fontColor=#ffffff;strokeColor=#6F0000;gradientColor=#009900;" vertex="1" parent="1">
          <mxGeometry x="190" y="420" width="120" height="60" as="geometry" />
        </mxCell>
        <mxCell id="RilxSywIGoVYFwTixHnn-1" value="" style="strokeWidth=1;html=1;shape=mxgraph.flowchart.database;whiteSpace=wrap;fillColor=#FFFF33;strokeColor=#000000;gradientColor=#FF3333;" vertex="1" parent="1">
          <mxGeometry x="220" y="525" width="60" height="60" as="geometry" />
        </mxCell>
        <mxCell id="nFPPkHZJKO8AiCi2BOrT-1" value="ANGGA X PPLG 1" style="rounded=1;whiteSpace=wrap;html=1;fontStyle=0;arcSize=50;" vertex="1" parent="1">
          <mxGeometry x="40" y="40" width="120" height="40" as="geometry" />
        </mxCell>
        <mxCell id="nFPPkHZJKO8AiCi2BOrT-2" value="&lt;b&gt;Username atau&lt;br&gt;Password Valid&lt;/b&gt;" style="text;html=1;align=left;verticalAlign=middle;resizable=0;points=[];autosize=1;strokeColor=none;fillColor=none;" vertex="1" parent="1">
          <mxGeometry x="430" y="480" width="110" height="40" as="geometry" />
        </mxCell>
      </root>
    </mxGraphModel>
  </diagram>
</mxfile>
